<?xml version="1.0" encoding="UTF-8"?>
<svg id="Laag_1" xmlns="http://www.w3.org/2000/svg" version="1.1" viewBox="0 0 870.9 390.2">
  <!-- Generator: Adobe Illustrator 30.0.0, SVG Export Plug-In . SVG Version: 2.1.1 Build 123)  -->
  <defs>
    <style>
      .st0 {
        fill: none;
        stroke: #1d1d1b;
        stroke-dasharray: 12;
        stroke-linecap: round;
        stroke-linejoin: round;
      }

      .st1 {
        fill: #fff;
      }

      .st2 {
        fill: #1d160e;
      }
    </style>
  </defs>
  <line class="st0" x1="1014.8" y1="340.9" x2="1014.8" y2="342.9"/>
  <g>
    <path class="st1" d="M537.4,303.2c-1.7,0-3.1-.4-4.1-1.2-1-.8-1.9-2.1-2.4-3.8l-16.2-45.4c-.7-2-.6-3.7.4-5.2,1-1.4,2.7-2.1,5.1-2.1s3.1.4,4.1,1.2c1,.8,1.7,2.1,2.2,3.8l13.1,39.3h-3.4l14-39.3c.6-1.7,1.4-3,2.3-3.8,1-.8,2.2-1.2,3.8-1.2s2.7.4,3.6,1.2c.9.8,1.7,2.1,2.2,3.8l13.4,39.2h-3l13.4-39.3c.6-1.7,1.4-3,2.3-3.8,1-.8,2.3-1.2,3.9-1.2s3.6.7,4.6,2.1c1,1.4,1.1,3.1.3,5.2l-16.2,45.4c-.7,1.7-1.5,3-2.5,3.8-1,.8-2.3,1.2-4,1.2s-3.1-.4-4.1-1.2c-1-.8-1.9-2.1-2.4-3.8l-12.6-35.8h1.9l-12.9,35.8c-.6,1.7-1.5,3-2.4,3.8-1,.8-2.4,1.2-4.1,1.2Z"/>
    <path class="st1" d="M630.8,303.4c-5.5,0-10.4-1.2-14.6-3.6-4.2-2.4-7.5-5.8-9.8-10.2-2.3-4.4-3.4-9.5-3.4-15.3s.7-8.3,2-11.9c1.3-3.6,3.2-6.6,5.6-9.2,2.5-2.6,5.4-4.5,8.8-5.8,3.4-1.3,7.2-2,11.4-2s10.5,1.2,14.7,3.6c4.2,2.4,7.4,5.7,9.8,10.1,2.3,4.3,3.5,9.4,3.5,15.2s-.7,8.4-2,12c-1.3,3.6-3.2,6.7-5.7,9.2-2.5,2.6-5.4,4.5-8.8,5.9-3.4,1.3-7.2,2-11.4,2ZM630.8,292.9c3.1,0,5.8-.7,8-2.2,2.2-1.5,3.9-3.6,5.1-6.4,1.2-2.8,1.8-6.1,1.8-9.9,0-5.9-1.3-10.4-4-13.6-2.6-3.2-6.3-4.8-11-4.8s-5.8.7-8,2.2c-2.2,1.4-3.9,3.5-5.1,6.3-1.2,2.7-1.8,6.1-1.8,10,0,5.8,1.3,10.4,4,13.6,2.6,3.3,6.3,4.9,10.9,4.9Z"/>
    <path class="st1" d="M674.5,303.2c-2,0-3.5-.5-4.6-1.6-1.1-1.1-1.6-2.7-1.6-4.7v-44.4c0-2.1.5-3.7,1.6-4.7,1.1-1.1,2.6-1.6,4.6-1.6h19.5c6.2,0,11.1,1.5,14.5,4.6s5.2,7.3,5.2,12.7-.8,6.6-2.3,9.1-3.8,4.5-6.7,5.9c-2.9,1.4-6.5,2.1-10.6,2.1l.7-1.3h3.2c2.2,0,4.2.5,5.9,1.6,1.7,1.1,3.1,2.7,4.3,5l5,9.3c.8,1.3,1.2,2.6,1.1,3.9,0,1.3-.6,2.3-1.5,3-.9.8-2.2,1.2-4,1.2s-3.2-.4-4.3-1.1c-1.1-.7-2.1-1.9-2.9-3.4l-7.8-14.1c-.7-1.5-1.7-2.6-2.8-3.1-1.1-.5-2.6-.8-4.3-.8h-6v16.1c0,2-.5,3.6-1.6,4.7-1,1.1-2.6,1.6-4.7,1.6ZM680.8,271.8h11.2c3.3,0,5.7-.7,7.4-2,1.7-1.3,2.5-3.3,2.5-6s-.8-4.6-2.5-5.9c-1.7-1.3-4.1-2-7.4-2h-11.2v15.9Z"/>
    <path class="st1" d="M730.2,303.2c-2,0-3.5-.5-4.6-1.6-1.1-1.1-1.6-2.7-1.6-4.7v-45.1c0-2,.5-3.6,1.6-4.6s2.6-1.6,4.6-1.6,3.6.5,4.6,1.6c1.1,1.1,1.6,2.6,1.6,4.6v19h.2l21.3-22.2c.9-1,1.9-1.7,2.9-2.2,1-.5,2.1-.8,3.4-.8,1.9,0,3.2.5,4,1.4.8,1,1.2,2.1,1.1,3.4-.1,1.3-.7,2.5-1.8,3.5l-21.4,21.8v-5.2c0,0,22.4,23.8,22.4,23.8,1.3,1.3,1.9,2.6,2,4,0,1.4-.4,2.6-1.4,3.5-.9.9-2.3,1.4-4.1,1.4s-2.8-.3-3.7-1c-.9-.6-1.9-1.5-3.1-2.7l-21.6-22.7h-.2v20.1c0,2-.5,3.6-1.6,4.7-1,1.1-2.6,1.6-4.7,1.6Z"/>
    <path class="st1" d="M797.6,303.4c-2.2,0-4.5-.2-6.9-.5-2.3-.3-4.5-.8-6.6-1.4-2.1-.6-3.9-1.4-5.6-2.4-1.2-.6-2.1-1.5-2.6-2.5-.5-1-.6-2.1-.5-3.2.2-1.1.5-2,1.2-2.8.6-.8,1.5-1.4,2.5-1.6,1.1-.2,2.2,0,3.4.6,2.2,1.2,4.7,2.1,7.2,2.6,2.6.6,5.2.9,7.7.9,3.8,0,6.6-.6,8.3-1.8,1.7-1.2,2.6-2.7,2.6-4.5s-.6-2.8-1.8-3.7-3.3-1.6-6.2-2.2l-9-1.9c-5.1-1.1-8.9-3-11.4-5.6-2.5-2.6-3.7-6-3.7-10.2s.5-5.1,1.6-7.3c1.1-2.2,2.6-4.1,4.6-5.7,2-1.6,4.4-2.8,7.2-3.6,2.8-.8,5.9-1.2,9.4-1.2s5.8.3,8.7,1c2.9.7,5.4,1.7,7.7,3.1,1,.6,1.7,1.4,2.1,2.4s.5,2,.4,3c-.1,1-.5,1.9-1.2,2.6-.7.7-1.5,1.2-2.5,1.4-1,.2-2.2,0-3.7-.7-1.7-.9-3.6-1.6-5.6-2-2-.4-4-.6-6.1-.6s-4.1.3-5.7.9c-1.6.6-2.8,1.4-3.6,2.4s-1.2,2.3-1.2,3.7.5,2.7,1.6,3.7c1.1,1,3,1.7,5.8,2.3l9,1.9c5.3,1.1,9.2,2.9,11.8,5.4,2.6,2.5,3.9,5.7,3.9,9.8s-.6,5.1-1.7,7.2-2.7,4-4.7,5.5-4.4,2.7-7.2,3.5c-2.8.8-6,1.2-9.6,1.2Z"/>
  </g>
  <g>
    <path class="st1" d="M457.8,233.2c18,0,32.5,14.6,32.5,32.5v20.8c0,18-14.6,32.5-32.5,32.5h-48.6c-18,0-32.5-14.6-32.5-32.5v-12.8c0-22.4-18.2-40.5-40.5-40.5H104.9c-22.4,0-40.5-18.2-40.5-40.5v-50.2c0-22.3,18.2-40.5,40.5-40.5h231.2c22.4,0,40.5,18.2,40.5,40.5v50.1c0,22.4,18.2,40.5,40.6,40.5h40.7Z"/>
    <path class="st2" d="M134.2,179.6c0-3-3.8-4.3-8.7-5.7l-9.8-3c-7.1-2.1-13.3-7.1-13.3-15.8s9.5-17.7,22.2-17.7,21.6,3.4,21.6,9.7-2,6.3-5.5,6.3-3.5-.6-5.4-1.2c-2.7-1-6.1-2.2-10.7-2.2s-8.4,1.5-8.4,4.5,2.1,3.9,6.7,5.3l11,3.4c7.4,2.3,14.2,6.7,14.2,16.9s-10.2,17.9-23.3,17.9-23.8-3.4-23.8-9.7,2.3-6.3,6.1-6.3,3.9.5,6,1.3c3,1,6.5,2.2,11.7,2.2s9.5-2,9.5-5.7h0Z"/>
    <path class="st2" d="M201.1,144.4c0-4.5,2.3-6.7,6.7-6.7s6.8,2.3,6.8,6.7v25.8c0,16.9-11.3,27.8-26.7,27.8s-26.7-10.9-26.7-27.8v-25.8c0-4.5,2.3-6.7,6.7-6.7s6.8,2.3,6.8,6.7v25.8c0,9.1,5.5,14.6,13.2,14.6s13.3-5.5,13.3-14.6v-25.8h0Z"/>
    <path class="st2" d="M256.2,179h-12.3v12c0,4.5-2.3,6.7-6.8,6.7s-6.7-2.3-6.7-6.7v-46.1c0-4.5,2.3-6.7,6.7-6.7h19.3c12.9,0,21.9,8.5,21.9,20.8s-3.4,13.2-9.2,16.2l6.3,12.5c.6,1.2.9,2.4.9,3.6,0,3.9-4.5,6.4-7.8,6.4s-4.3-1.5-5.5-4.3l-6.7-14.3h0ZM243.9,151.1v15.7h11.4c5.2,0,9.2-2.3,9.2-7.8s-4.1-7.9-9.2-7.9h-11.4Z"/>
    <path class="st2" d="M306.4,176.4v14.5c0,4.5-2.3,6.7-6.7,6.7s-6.7-2.3-6.7-6.7v-46c0-4.5,2.3-6.7,6.7-6.7h32.3c4.3,0,6.4,2.2,6.4,6.4s-2.1,6.5-6.4,6.5h-25.6v12.5h16c4.3,0,6.4,2.2,6.4,6.5s-2.1,6.4-6.4,6.4h-16,0Z"/>
  </g>
</svg>